
<svg width="125" height="94" viewBox="0 0 125 94" fill="none" xmlns="http://www.w3.org/2000/svg">
<path d="M125 61.963C125 53.7675 123.323 45.7376 119.97 37.8732C116.7 30.2572 112.257 23.6759 106.64 18.1295C101.023 12.583 94.3578 8.19551 86.6449 4.96698C78.7643 1.65566 70.7579 0 62.6258 0H62.5H62.2485C54.1164 0 46.11 1.65566 38.2294 4.96698C30.6841 8.11273 24.061 12.5002 18.3602 18.1295C12.5754 23.8415 8.0902 30.4227 4.90442 37.8732C1.6348 45.572 -5.15897e-06 53.6019 -5.15897e-06 61.963V94H37.8521V61.7147C37.9359 55.092 40.4091 49.4214 45.2716 44.7028C50.0503 39.9841 55.7931 37.5834 62.5 37.5007C69.2069 37.5834 74.9497 39.9841 79.7284 44.7028C84.507 49.4214 86.9383 55.092 87.0221 61.7147V94H125L124.874 61.963H125Z" fill="#2ED3C6"/>
</svg>
